<svg xmlns="http://www.w3.org/2000/svg" viewBox="0 0 444.49 1021.5"><defs><style>.cls-1{fill:none;stroke:#000;stroke-miterlimit:10;stroke-width:2px;}</style></defs><title>hands-rose</title><g id="Calque_2" data-name="Calque 2"><g id="Graphic_Elements" data-name="Graphic Elements"><path class="cls-1" d="M200,1011.45c-16.69-37.11-34.12-73.94-48.49-112-3.57-9.48-6.95-19-10.06-28.68q-2.31-7.14-4.4-14.35c-.51-1.78-.75-3.71-2-5.13-1.41-1.66-1.54-4.13-2.05-6.22-4.76-19.57-9.6-39.64-6.76-59.89,1.28-9.16,5-17.62,6.93-26.63,1-4.7,1.09-9.51,1.44-14.29.38-5.23.66-10.48.91-15.73.5-10.48.85-21,1.57-31.45a82.13,82.13,0,0,1,2.1-15.14c1.21-4.69,2.75-9.32,3.47-14.13.75-5,.17-10.4.46-15.5a125.23,125.23,0,0,1,2-15.06c1.68-9.42,3.61-18.8,6.14-28,1.25-4.58,2.65-9.12,4.23-13.61q1.2-3.42,2.53-6.79c.83-2.09,1.77-3.61,4.17-4a13.27,13.27,0,0,1,9.75,2.49c2.93,2.48,5.18,6.64,7.12,9.91,5,8.39,7,17.06,7.67,26.72a176.78,176.78,0,0,1-.75,30.86c-.55,5.19-1.27,10.37-2.12,15.52-.8,4.89-1.51,9.72-1,14.68a86.82,86.82,0,0,0,2.73,13.31,46.49,46.49,0,0,0,4.57,11.31c3.61,6.24,8.95,11.8,16.54,12.16a23,23,0,0,0,15.05-4.91,22.21,22.21,0,0,0,5.91-8.29A47.54,47.54,0,0,1,235,697.82c5.36-6.23,11.65-11.59,16.84-18,2.78-3.44,5-7.29,7.89-10.68a57.12,57.12,0,0,1,9.39-8.93,39.74,39.74,0,0,1,5.91-3.64,9.39,9.39,0,0,0,3.45-3.46,50.83,50.83,0,0,0,6.24-11.56c3.24-8.48,3.56-16.9,2.54-25.82a108.87,108.87,0,0,0-2.36-14.25,36.23,36.23,0,0,0-5.8-12.09,48.32,48.32,0,0,0-8.35-9.42c-3.31-2.79-7.15-4.91-10.63-7.48a76.19,76.19,0,0,1-17.65-17.6,28.45,28.45,0,0,1-5.1-12.36c-.6-3.85-1.25-9.47,2.23-12.19,2.81-2.2,7.32-.91,10.41.09a32.59,32.59,0,0,1,10.91,6.41,122,122,0,0,1,8.83,8.64,41.81,41.81,0,0,0,10.4,7.9c3.89,2.14,8.21,4.05,11.48,7.11,3,2.83,5,6.69,7.14,10.18s4.34,7.29,7.78,9.57A27.26,27.26,0,0,0,311,582.5a33.39,33.39,0,0,1,7,4.42c3.56,2.71,7.62,4.83,10.8,8a35.65,35.65,0,0,1,7.53,10.37c4,8.64,1.85,18.31-1.22,26.89-3.41,9.48-6.48,19-9.47,28.62-3.07,9.94-7.12,19.51-10.49,29.35s-6.45,19.55-10,29.23c-1.59,4.38-3,9.39-5.35,13.39a21.45,21.45,0,0,1-9.78,8.68l2.71-.62C290,727.66,299.26,715.3,306,704.87c7.38-11.38,17.12-21,24.32-32.54,7.39-11.8,12.06-25.65,16-38.92,2-6.67,3.76-13.41,5.5-20.15.86-3.35,2.13-6.86,2.53-10.29a24.54,24.54,0,0,0-1.47-10.35c-2.16-6.52-6.27-12.4-10.29-17.9-4.19-5.75-8.75-11.21-13.12-16.82-4.21-5.4-7.32-11.46-10.67-17.4a87.62,87.62,0,0,0-5.28-8.44c-2-2.75-4.35-5.16-6-8.13a55.35,55.35,0,0,1-3.82-9.21c-1.08-3.15-2.67-6.13-3.93-9.23-2.51-6.14-4.73-12.43-8-18.26-2.88-5.2-6.25-9.63-12.64-10a13.43,13.43,0,0,0-10.3,3.9c-4.06,4.1-5.72,10.5-5,16.14.91,7.57,3.48,15.2,6.17,22.3a204.72,204.72,0,0,0,9.74,21.7c3.14,6.07,9.18,9.93,12.67,15.77.18.3,2.73-.44,2.89-.75,1.5-2.88.89-5.94,0-8.92-1-3.39-2-6.79-3.3-10.1a149.1,149.1,0,0,0-9.36-20A136.11,136.11,0,0,0,270.29,499a54.36,54.36,0,0,0-6-6.39c-1.65-1.49-3-1.58-5.06-1.07-4.24,1-9.33,3-10.94,7.46-1.89,5.32-2.18,12.17-1.42,17.72a25.21,25.21,0,0,0,2.16,7.5,19.91,19.91,0,0,0,2.22,3.64c1.06,1.37,2.6,2.42,3.43,3.88,1.7,3,1.64,7,2,10.34.48,4.25.88,8.5,1.29,12.76.76,7.74,1.56,15.49,3,23.14,1.56,8.26,4.81,16,6.49,24.22,1.62,7.92,1.91,16.09,2.46,24.14.59,8.58-.68,17.06-1.36,25.59a61.22,61.22,0,0,0,2.23,22.92c2.55,8.25,5.16,16.48,7.33,24.85a221.81,221.81,0,0,1,5,24.22q.89,6.08,1.3,12.19c.13,2,.22,4.07.27,6.11s.5,5,0,7.13-2.32,4.42-3.34,6.37l-2.85,5.46q-3.32,6.39-6.6,12.8c-4.39,8.62-8.67,17.29-12.75,26.06A138.69,138.69,0,0,0,246.07,853s2.87-.24,2.88-.75c.54-15.57,4.38-30.82,9.8-45.37,2.88-7.73,6.8-15.16,10.45-22.55,3.5-7.09,7.1-14.12,10.74-21.14q2.83-5.48,5.7-10.93a14.34,14.34,0,0,0,1.94-4.66,44.67,44.67,0,0,0,0-7.13A160.89,160.89,0,0,0,285,717.1c-1.45-8.14-3.41-16.19-5.64-24.15-2.11-7.53-5.1-15-6.73-22.6a78,78,0,0,1-1.58-11c-.26-4,.35-8.27.73-12.29.76-7.87,1.43-15.6.84-23.51-.6-8.08-.87-16.23-2.75-24.14-1.77-7.49-4.6-14.61-6.05-22.21s-2.25-15.4-3-23.14c-.35-3.59-.69-7.19-1.07-10.78s-.45-7.38-1.63-10.78c-1-2.9-3.65-4.57-5.25-7.19a23.55,23.55,0,0,1-2.94-8,43.09,43.09,0,0,1,.59-16.47c.74-3.6,2.36-6.27,5.73-8,2.15-1.08,3.3-1.22,5.1.4,1,.93,2.13,1.88,3.09,2.87,5.36,5.53,9.81,12.47,13.74,19.07a145.46,145.46,0,0,1,10.28,21c1.34,3.38,2.37,6.81,3.48,10.27s2.25,7.06.48,10.45l2.89-.75c-3-5-7.72-8.44-11.07-13.12a54.4,54.4,0,0,1-4.27-8.1q-2.29-4.76-4.39-9.6a139.69,139.69,0,0,1-6.68-19c-1.55-5.78-3.13-11.75-1.66-17.71a18.45,18.45,0,0,1,3.52-7.29,13.41,13.41,0,0,1,2.46-2.36,5.27,5.27,0,0,1,4.7-.95c6.53,1.11,9.55,6.74,12.27,12.17,2.84,5.67,4.91,11.69,7.38,17.53,1.19,2.82,2.52,5.52,3.52,8.41a48.78,48.78,0,0,0,4,9.13c1.58,2.65,3.75,4.84,5.55,7.34a91.09,91.09,0,0,1,5.28,8.45c3.17,5.64,6.11,11.44,10.05,16.6,4.14,5.42,8.54,10.63,12.62,16.09,3.89,5.22,8,10.8,10.47,16.85a32.38,32.38,0,0,1,2.41,9.06c.35,3.65-.68,6.95-1.58,10.44-1.65,6.46-3.31,12.91-5.13,19.33-3.64,12.84-8,25.51-14,37.43-6.66,13.13-17.19,23.54-25.56,35.52a170.17,170.17,0,0,0-11.48,18.69c-3.28,6.33-5.35,13.16-3.86,20.3.06.28,2.49-.52,2.72-.61a21.77,21.77,0,0,0,8.91-7.19c2.74-3.69,4.08-8.43,5.67-12.71,3.64-9.82,6.82-19.8,10.19-29.72s7.56-19.75,10.71-29.83c3.06-9.8,6-19.55,9.59-29.19,3.24-8.82,5.67-18.83,1.55-27.79a36.15,36.15,0,0,0-7.53-10.37c-3.19-3.15-7.24-5.27-10.8-8a28.26,28.26,0,0,0-5.12-3.62,39.79,39.79,0,0,1-6.68-3.28c-3.48-2.45-5.72-6.49-7.87-10.06s-4.24-7.37-7.45-10.06c-3.56-3-7.9-4.88-11.91-7.15-7.63-4.32-12.53-11.54-19.32-16.93-5.17-4.1-11.91-7.36-18.68-6.53a16,16,0,0,0-6.36,2c-3.45,2.13-3.56,6.18-3.35,9.86a27.32,27.32,0,0,0,4.08,13.26,63.5,63.5,0,0,0,7.79,9.89,85.05,85.05,0,0,0,9.8,8.68c3.48,2.66,7.3,4.84,10.76,7.51,6.63,5.1,12.81,13.08,15.06,21.17a96.89,96.89,0,0,1,2.61,14.65,66.51,66.51,0,0,1,.66,13.3,50.11,50.11,0,0,1-9.31,25c-2.64,3.67-7.13,5.25-10.64,8a60.44,60.44,0,0,0-9.18,9.26c-2.86,3.54-5.16,7.49-8.12,10.94-2.74,3.19-5.72,6.16-8.68,9.14-5.74,5.79-11.23,11.72-14.61,19.23-3.62,8-12.32,12.92-20.81,9.08-7.31-3.31-11.79-11.93-14.15-19.2-2.95-9.08-4.57-18.67-3-28.15a255.91,255.91,0,0,0,3.52-31c.43-10.22.63-21.42-2.08-31.36a53.35,53.35,0,0,0-5.14-12.25c-2-3.56-4.34-7.56-7.21-10.51-3.75-3.86-10.43-3.7-15.19-2.19a6.86,6.86,0,0,0-5.07,4.62q-2.74,6.91-4.92,14a267.1,267.1,0,0,0-6.84,28.18A166,166,0,0,0,140,662.39a55.85,55.85,0,0,1-2.2,14.91,82,82,0,0,0-3.18,15.25c-.86,10.64-1.27,21.32-1.74,32-.24,5.42-.5,10.84-.84,16.26-.32,4.94-.42,10-1.1,14.92-1.27,9.21-5.31,17.74-7,26.85a99.24,99.24,0,0,0-.44,30.58c1.27,10.19,3.64,20.21,6.06,30.18.57,2.35.84,5.17,1.79,7.39a7.3,7.3,0,0,0,1.08,1.51,8.58,8.58,0,0,1,1.19,3q2.06,7.21,4.34,14.35c12.59,39.55,29.63,77.51,46.76,115.26q6.21,13.68,12.4,27.37c.17.36,2.93-.67,2.89-.75Z"/><path class="cls-1" d="M194.89,719.06a64.44,64.44,0,0,1,3.51-15.64c1.56-4.24,4.31-8,5.36-12.4a155.22,155.22,0,0,1,11.14-30c4.44-9.34,9.12-18.59,12.81-28.26a119.37,119.37,0,0,0,4.37-13.67c.6-2.42.94-4.89,1.52-7.31.41-1.68,1.64-2.81,1.83-4.54.56-5.18.26-10.68.41-15.9s.23-10.73-.09-16.08a81.51,81.51,0,0,0-2.2-15.08c-1.42-5.68-4.05-10.84-6.58-16.09-4.86-10.05-10.06-20-14.75-30.09-4.61-10-10.62-19-16.49-28.29-5.61-8.86-14.92-15.23-18.6-25.32-3.95-10.84,0-21.7,3.59-32a228.36,228.36,0,0,1,11.91-28.17q3.47-6.84,7.42-13.41c2.57-4.27,6.46-8.5,7-13.59.47-4.18.16-10.34,5.19-11.89,7-2.15,11.29,4.76,13.61,10.29,3.58,8.57,3.42,18.3,1.39,27.22-1.2,5.29-3.78,10-5.59,15.09-1.66,4.68-2.51,9.74-3.74,14.55-2.59,10.19-6.71,19.4-11.11,28.9-3.65,7.86-8,15.48-14.88,21-1.18.95-2.65,2.23-4.18,2.58-.55.13-1.17,0-1.72.13-2.46.82-4.68,2.8-7.18,3.75a36.1,36.1,0,0,1-14.91,2c-5.68-.33-9.53-4.3-13.55-7.86s-7.17-8.31-9.84-13A96.66,96.66,0,0,1,130,436.46c-2.1-11.06-2.09-22.85-1-34s8.41-20.33,13.52-30c4.66-8.84,8.69-18,14-26.56,1.25-2,2.57-4,4-5.93s3.47-3.84,4.33-6.2c1.64-4.53,4.53-8.44,7.58-12.12,6.32-7.63,12.44-15.21,19.73-21.94,7.57-7,14.36-14.08,19.27-23.24A79.66,79.66,0,0,0,217,264c1.38-4.2.48-7.62-2-11.12-3.47-4.81-9.43-11.51-16.15-9.35-3.77,1.21-6.8,4.49-9.31,7.38-3.22,3.71-6.12,7.23-10.29,9.94-8.59,5.57-17.26,11.19-25.08,17.83-4.18,3.55-8.49,6.94-12.89,10.23a72.34,72.34,0,0,0-6.13,4.58c-1.92,1.79-3.55,4-5.35,6-3.61,3.87-7.52,7.47-11.11,11.35-3.16,3.43-5,8.53-6.18,13-2.78,10.83-3,22.1-5.16,33-2.29,11.38-6.15,22.73-9.69,33.78-1.69,5.28-3.51,10.52-5.59,15.66-1.82,4.53-4.17,8.87-5.67,13.52-2.58,8-2.76,16.9,1.07,24.57,2,4.1,5.19,7.29,8.13,10.75,3.75,4.42,7.31,9,10.74,13.68,6.48,8.88,12.49,18.08,18.69,27.16,1.63,2.4,3.46,7.22,6.85,7.35,3.19.12,5.49-2.27,6.86-4.92a26.91,26.91,0,0,0,2.57-10.51c.44-5.59,1.09-11.16,1.87-16.71,3.15-22.51,9-44.77,10-67.53.51-11,5.25-21.11,9.23-31.23a46.52,46.52,0,0,0,2.25-6.35c.59-2.52.68-5.14,1.38-7.64,1.31-4.68,3.68-10.47,6.74-14.29,6-7.52,19.21-4.34,27.23-3.08,11.11,1.75,22.31,2.69,33.49,3.88,5.52.59,11,1.5,16.5,2.22a74.83,74.83,0,0,1,16.84,3.93c10.34,3.89,21.06,6.46,31.53,9.9,6.61,2.16,5.3,8.67,1.37,12.81a26.07,26.07,0,0,1-5.17,4.13,43.06,43.06,0,0,1-7,3.25c-2.12.88-4.15,2-6.47,2.22-2.51.26-5.14.35-7.66.41-5.53.14-11.12-2.33-16.28-4.08-9.52-3.24-19-6.79-29-8.21-9-1.27-19.47-1.09-27.66,3.38-3.76,2.06-6.67,5.37-9.64,8.4a60.24,60.24,0,0,0-8.62,10.5c-1.44,2.35-5.11,7.95-3.13,10.64s6.56,2.06,9.46,2a81.68,81.68,0,0,0,15.65-2c5.72-1.25,11.14-2.89,17-2.92a54.3,54.3,0,0,1,31.5,10.1c8.22,5.75,14.3,13.68,20.27,21.63,2.8,3.74,5.28,7.89,5.81,12.63.32,2.92-.36,4.17-3,5.46a19.87,19.87,0,0,1-7.33,1.89,32.28,32.28,0,0,1-14.64-2.61c-4.83-2.13-8.49-7-11.88-10.84a59.82,59.82,0,0,0-8.74-8.76,34.12,34.12,0,0,0-11.61-5.39,38.5,38.5,0,0,0-14.73-.93c-4.11.52-5.68,2.63-6.51,6.64-2.08,10.07-4.08,20.21-7.33,30-6.12,18.4-18,36.58-34.51,47.27-8.48,5.51-19.05,8.9-29,5.47-8.16-2.82-13.68-10-18-17.08a196.83,196.83,0,0,1-11.92-23.15,77.91,77.91,0,0,0-5.89-11.5c-1.85-2.8-4.36-6.59-7.54-8-1.93-.86-3.47-.51-3.76,1.75-.47,3.73,1.85,7.19,3.35,10.36,4.87,10.33,9.13,20.94,13.71,31.4,1.11,2.54,2.24,5.07,3.41,7.58,1.32,2.86,3.48,6,4,9.15.82,4.63,3.17,8.92,4.92,13.33,4,10.15,7.42,20.64,9.09,31.46,3.25,21.05-1.89,42.22-8.54,62.14-6.4,19.15-15,37.44-24.28,55.36s-19.27,35.78-28.35,54c-10.24,20.48-19.87,41.29-29.91,61.87C19.88,813,10.09,833.39,1,854.09c-.39.88,2.13,2.41,2.43,1.73,10.09-23.07,21.09-45.71,32.14-68.33,10.67-21.85,20.76-44,32-65.61,20-38.47,42.85-76.2,53-118.8,2.62-11.08,4.54-22.28,3.8-33.7-.72-11.23-3.5-22.23-7.23-32.82-1.94-5.48-4.13-10.87-6.44-16.21-.91-2.09-.94-4.27-1.75-6.33-1.22-3.13-3-6.14-4.38-9.2-5.15-11.29-9.7-22.84-14.87-34.11-1.73-3.79-5.46-8.76-4.78-13.19.53-3.43,3.74.56,4.79,1.88a44,44,0,0,1,4.57,7.32c4.22,8.3,7.77,16.85,12.27,25,7.95,14.45,19.88,28.18,38.11,25.32,10.37-1.63,19.1-8,26.52-15.07a94.1,94.1,0,0,0,18.5-25c4.79-9.33,7.73-19.46,10.09-29.65,1.23-5.32,2-10.86,3.43-16.12,1.7-6,9.7-5.16,14.67-4.58A29.28,29.28,0,0,1,235,434.27c3.57,3.44,6.58,7.43,10,11,2.94,3,6.26,6,10.27,7.45a38.55,38.55,0,0,0,13.49,2.61,22.62,22.62,0,0,0,6.12-.87c1.54-.44,5.61-1.69,6.4-3.27.65-1.3,0-4-.24-5.38a22.59,22.59,0,0,0-2.16-6.18c-2-3.93-4.86-7.35-7.61-10.77-3-3.73-5.75-7.59-9.18-11-6.79-6.7-15.45-12.62-24.62-15.47a62,62,0,0,0-16.37-2.84c-5.66-.17-10.82,1-16.27,2.3a82.25,82.25,0,0,1-19.23,2.62c-.66,0-3.42.33-4-.13-1.19-.95.32-3.54.78-4.59a36.75,36.75,0,0,1,4-6.94,90.88,90.88,0,0,1,9.75-10.73,27.64,27.64,0,0,1,13.53-7.89c11.26-2.75,22.86-.74,33.76,2.55,5.65,1.7,11.19,3.72,16.79,5.59,4.8,1.6,9.74,3.63,14.87,3.49,4.9-.12,9.23-.39,13.74-2.34,2.42-1.05,4.73-1.67,7-3.08a34.4,34.4,0,0,0,5.06-3.68c2.92-2.65,5.51-6.48,4.48-10.63-.79-3.21-3.68-5.42-6.63-6.53-5.14-1.94-10.65-3.15-15.92-4.72-6.18-1.83-12.26-3.86-18.3-6.1a72.32,72.32,0,0,0-15.94-3.52c-5.63-.74-11.23-1.67-16.88-2.27-12.51-1.34-24.94-2.81-37.39-4.54-7.74-1.07-19.5-2.87-24.6,4.83A50.41,50.41,0,0,0,163.44,357c-.68,2.51-.79,5.12-1.38,7.65a65.91,65.91,0,0,1-3.4,9.16c-2.08,5.17-4.23,10.33-5.82,15.68-1.73,5.81-2,11.48-2.62,17.46-1.17,12.24-3.1,24.24-5.27,36.35-2.12,11.82-4.24,23.66-5.55,35.61-.65,6-.14,23.2-10.06,22.32l2,1.26c-11.8-16.89-22.63-34.51-36.27-50-6.48-7.38-9.28-15.76-7.62-25.56.79-4.64,2.58-8.8,4.49-13.06,2.21-4.9,4.14-9.91,5.91-15,3.34-9.63,6.07-19.46,8.94-29.23,3.12-10.62,4.46-21.18,5.92-32.11.73-5.46,1.45-11.29,3.59-16.41a51.86,51.86,0,0,1,2.71-5.86c1.35-2.31,3.4-4.08,5.26-6,3.41-3.42,6.79-6.88,10-10.46a36.7,36.7,0,0,1,5.43-5.29c2-1.51,4-3,6-4.52,8.43-6.38,16.33-13.34,25.07-19.33,4.11-2.82,8.43-5.36,12.51-8.22,3.13-2.2,5.51-5.29,8-8.17,2.66-3.12,5.87-6.9,10-8,5.22-1.36,9.23,4,11.84,7.67,3.57,5.06,1.27,9.39-.86,14.42a82.38,82.38,0,0,1-6.4,12.51c-5.16,8.07-12.27,14.2-19.16,20.73s-12.86,14.05-18.61,21.46a46.1,46.1,0,0,0-3.52,5.13c-1.19,2.05-1.77,4.54-3,6.47s-2.84,3.47-4.13,5.27c-1.48,2.07-2.86,4.22-4.17,6.4-4.89,8.15-8.74,16.86-13.17,25.26-4.6,8.74-10.89,16.82-13,26.65-1.09,5-1,10.38-1.13,15.49a119.26,119.26,0,0,0,.59,15.7,101.18,101.18,0,0,0,7.5,28.05c3.26,7.73,7.75,16.28,14,22a68.46,68.46,0,0,0,8.92,7.3,18.83,18.83,0,0,0,10.23,3,36.39,36.39,0,0,0,12.86-1.76,38.08,38.08,0,0,0,6.57-3.14c1.78-1,3.55-.89,5.24-2,6.94-4.63,11.77-11.49,15.47-18.85,3.91-7.78,7.93-15.88,10.58-24.17,1.51-4.71,2.67-9.52,3.85-14.31a125.18,125.18,0,0,1,5.08-15.68c3.15-8.08,5-16.35,4.16-25.11-.72-7.61-3.54-15.4-8.94-21-4.59-4.73-13.58-6-16.38,1.19a16.82,16.82,0,0,0-1,5.21c-.21,3.26-.62,5.65-2.46,8.45q-4.14,6.35-7.86,13a217.26,217.26,0,0,0-12.28,25.78c-3.46,8.67-7.49,18.11-8.81,27.4s1.22,18,7,25.41c2.89,3.74,6.25,7.08,9.28,10.7,3.53,4.22,6.22,9,9.2,13.64,2.83,4.37,5.68,8.74,8.1,13.36,2.66,5.08,4.88,10.42,7.41,15.57,4.68,9.52,9.57,18.93,14,28.58,4.49,9.85,5.23,21,5.19,31.69,0,5.16-.24,10.32-.4,15.47-.07,2.35,0,4.75-.14,7.09-.14,1.81-1.18,2.7-1.69,4.34-1.38,4.42-1.85,9.17-3.23,13.64a144.43,144.43,0,0,1-5.46,14.54c-3.9,9.05-8.42,17.82-12.52,26.77-2.07,4.53-3.83,9.14-5.45,13.85q-1,2.9-1.88,5.83c-.84,2.82-1.26,6-2.56,8.66A83.64,83.64,0,0,0,195,704.46a65.25,65.25,0,0,0-2.67,13.19c-.09.87,2.44,2.29,2.53,1.41Z"/><path class="cls-1" d="M131.74,852.77c-3.48,4.75-5.45,10.41-7.07,16-1.8,6.21-3.38,12.47-5.39,18.62-2.07,6.32-4.38,12.56-6.27,18.93s-3.53,12.52-5.42,18.75C105.5,932,103.43,939,103,946.21c0,.52,2.92.84,3,.44.41-6.4,2.1-12.65,3.92-18.77s3.64-12.5,5.45-18.75,4.08-12.66,6.19-19c2.06-6.16,3.79-12.38,5.51-18.63s3.75-12.92,7.71-18.31c.15-.21-1.32-.52-1.43-.54-.35,0-1.26-.26-1.52.09Z"/><path class="cls-1" d="M248.08,851.65c-.92,6,1.83,11.64,4.76,16.63,3.29,5.62,6.87,11.09,10.46,16.52,7.6,11.51,15.63,22.74,23.77,33.88s16.29,22.38,24.61,33.43,16.95,21.8,25.3,32.79q6.31,8.33,12.32,16.88a133.91,133.91,0,0,0,12.2,14.78c1.1,1.17,2.22,2.33,3.34,3.47s3.19-.33,1.84-1.71a149.06,149.06,0,0,1-12.49-14.2c-4.08-5.38-7.85-11-11.89-16.42-8.16-10.91-16.68-21.53-24.95-32.35s-16.19-21.82-24.24-32.77S277,900.49,269.32,889.16q-5.67-8.37-11-17c-3-4.81-6.5-9.84-7.36-15.57a13.63,13.63,0,0,1,0-4.18c.23-1.55-2.58-2.48-2.84-.8Z"/><path class="cls-1" d="M348,124c-1.19-.19-2.19-1-3.38-1.21s-2.48-.34-3.71-.55a71,71,0,0,1-7.62-1.69,51.64,51.64,0,0,1-7.05-2.57c-2.38-1.08-4.63-2.41-6.92-3.66-9-4.93-18.21-9.59-26.92-15.07a87.78,87.78,0,0,1-12.09-8.7,22.2,22.2,0,0,1-4.07-4.74,35.87,35.87,0,0,1-2.86-7.1c-1.7-4.86-3.47-9.57-6.41-13.83-1.35-2-2.48-4.08-3.87-6a24.81,24.81,0,0,0-12-8.31,13.61,13.61,0,0,0-7,.1A21.29,21.29,0,0,0,233,59c-2.78,4-4.3,8.73-5.8,13.3-.69,2.11-1.33,4.24-2.16,6.3-.72,1.78-1.51,3.53-2.1,5.36-.53,1.61-1.13,3.63-.57,5.31.61,1.84,2.23,3.26,3.59,4.56,3.83,3.68,7.57,7.47,11.42,11.15s7.95,7.23,11.46,11.33c1.65,1.94,3.25,3.92,5,5.77s3.75,3.68,5.72,5.41c3.93,3.41,7.79,6.92,12,10,2.12,1.58,4.28,3.08,6.46,4.59a57.24,57.24,0,0,0,6.48,4.18,46.29,46.29,0,0,0,6.81,2.68c2.66.86,5.3,1.76,7.92,2.72,5.11,1.87,10.13,3.46,15.6,3.66a72.06,72.06,0,0,0,16.1-1.61,69.55,69.55,0,0,0,7.7-1.7,39.68,39.68,0,0,0,6.14-2.54c4.1-2.08,7.93-4.66,12.12-6.53a49.13,49.13,0,0,1,6-2c2-.61,4.12-1.7,4.59-3.95s-.51-4.45-.85-6.62a23,23,0,0,1-.11-4.15,5.79,5.79,0,0,0-.61-3.15c-.93-1.59-2.84-2.37-4.55-2.77a27,27,0,0,0-6.67-1,25.63,25.63,0,0,0-7.32,1.83c-1.06.36-2.11.75-3.13,1.2-1.19.52-2,.9-3,0-1.86-1.61-3.54-3.5-5.32-5.21-2-1.92-4-3.81-6.05-5.66-8.2-7.41-17.18-13.88-26-20.47-4.22-3.15-8.39-6.41-12.71-9.42-3-2.09-6.21-3.88-9-6.27-2.6-2.24-4.68-5-5.09-8.51a24.58,24.58,0,0,1,.55-6.89c.44-2.58,1-5.13,1.71-7.65C282,42,286.57,32.33,291.3,22.85c2.42-4.87,5-9.65,7.73-14.36,1.11-1.94,2.36-3.93,4.39-5a10.86,10.86,0,0,1,5.72-1.1,26.37,26.37,0,0,1,7.06,2c2.35.83,4.76,1.44,7.14,2.16a78.69,78.69,0,0,1,14.83,6.45c4.72,2.6,9.43,5.14,14.34,7.37,2.35,1.07,4.73,2.06,7,3.25s4.47,2.54,6.72,3.8a27.76,27.76,0,0,1,6,4,31.05,31.05,0,0,1,4.52,5.7,57.71,57.71,0,0,1,6.56,13.06A55.92,55.92,0,0,1,385.7,65a123.19,123.19,0,0,1-.18,16c-.68,8.67-2.36,17.63-5.88,25.64a24.68,24.68,0,0,1-6.23,9.07c-3.41,2.89-7.89,3.07-12.13,3.72-2.36.36-4.61.71-6.94,0s-4.3-2.14-6.71-2.56a12.5,12.5,0,0,0-3.51,0,3.34,3.34,0,0,1-3.06-1,10.8,10.8,0,0,1-1.51-3.51c-.48-1.32-.87-2.66-1.26-4a139.14,139.14,0,0,0-5-15,117.74,117.74,0,0,0-6.9-13.52C321,70.47,315,61.56,308.92,52.79c-.77-1.11-1.55-2.21-2.32-3.31A8.4,8.4,0,0,1,305,46.4c-.31-1.68.69-3.35,1.73-4.59,2.49-2.94,6-5,9.43-6.68a61.05,61.05,0,0,1,14.42-4.78,89.53,89.53,0,0,1,14.22-1.83c4.18-.17,8.48.38,12,2.91,3.63,2.65,6,6.88,7.41,11.06A50.77,50.77,0,0,1,366.52,56a13.41,13.41,0,0,1-.54,6A12.31,12.31,0,0,1,361.55,67a252.4,252.4,0,0,0-24,20,159.5,159.5,0,0,0-11.13,11.83c-1.44,1.68-3,3.31-4.38,5-1,1.23-1.89,2.7-1,4.22a7.77,7.77,0,0,0,3.48,2.65,24.19,24.19,0,0,0,4.27,1.54c2.78.7,6.05.16,7.82-2.26,1.62-2.21,2-5.15,2.29-7.81.36-3.45.64-6.9,1-10.35.63-5.63,1.19-11.26,1.76-16.89s1.2-11.16,1.59-16.75c.08-1.11.17-2.2.29-3.3a7.69,7.69,0,0,0-.07-3.24c-.35-1.1-1.05-1.13-2.11-1.16a27.78,27.78,0,0,0-3.65.13,45.86,45.86,0,0,0-14.56,4.3,67.83,67.83,0,0,0-6.13,3.26c-2,1.23-4.19,2.69-6.59,3.06-4.2.66-8.27-2.22-11.59-4.4A62.88,62.88,0,0,0,286.49,50a54.82,54.82,0,0,0-7.89-2.07,70.87,70.87,0,0,0-7.94-1.25c-2.54-.23-5.09-.3-7.63-.4-2.11-.08-4.31-.39-6.36.29a6,6,0,0,0-3.52,3.28,25.17,25.17,0,0,0-1.25,2.94,6.36,6.36,0,0,0-.34,1.35c-.06.63.08,1.26-.38,1.76l2.71-.32c-.93-.9-1.11-2.22-1.84-3.25-.48-.67-2.81-.2-2.86.67a10.39,10.39,0,0,0,1.53,5.21c.4.8.81,1.58,1.16,2.41s.61,1.94,1,2.89c.82,2,1.84,3.83,2.61,5.82s1.47,4.07,2.22,6.1a95.51,95.51,0,0,0,5.47,11.35c1.76,3.35,3.25,6.78,5.45,9.88,2.44,3.44,5.15,6.69,7.52,10.19s4.52,7.27,6.83,10.88,5.21,6.49,7.9,9.72,5.28,6.65,8.49,9.42c13.28,11.44,32.13,10.19,48.43,8.5,9.06-.94,18.19-2.06,27.13-3.82,8.07-1.59,16.22-3.38,23.87-6.49a45.81,45.81,0,0,0,8.29-4.21,9,9,0,0,0,3.13-2.92,13.79,13.79,0,0,0,1.44-5.52q.43-6.9,1.12-13.78c.47-4.74,1.27-9.46,2-14.16,1.44-8.88,3-17.76,4.12-26.68a44.1,44.1,0,0,0,.15-12.67,21.54,21.54,0,0,0-4.37-9.71c-5.29-6.78-11.72-12.66-17.82-18.7-5.65-5.6-11.45-11.15-18.21-15.4A68.68,68.68,0,0,0,367.84,6,26.49,26.49,0,0,0,362,4.2a22.88,22.88,0,0,0-6.4.11,113.41,113.41,0,0,0-13.12,2.8c-4.3,1.07-8.65,1.9-13,2.7-9.22,1.68-18.48,3.1-27.75,4.46l-13.82,2A86.46,86.46,0,0,0,274.6,19a28.5,28.5,0,0,0-9.84,4.94,30.23,30.23,0,0,0-6.44,7.59,64,64,0,0,0-5.49,10.94,26,26,0,0,0-2,12,61.83,61.83,0,0,0,1.24,6.46c.23,1,.46,2.11.7,3.16a14.5,14.5,0,0,1,.65,3c0,.8,3,.46,2.94-.52a13.33,13.33,0,0,0-.61-2.84c-.26-1.11-.5-2.23-.74-3.34-.45-2.08-1-4.17-1.22-6.28a25.36,25.36,0,0,1,2-12.21,65.82,65.82,0,0,1,5.28-10.47,28.09,28.09,0,0,1,6.4-7.46,27.15,27.15,0,0,1,10-4.53,109.59,109.59,0,0,1,12.84-2.29c9-1.27,17.91-2.55,26.83-4,8.77-1.41,17.57-2.85,26.2-5a105.73,105.73,0,0,1,12.34-2.62,15.77,15.77,0,0,1,6.16.29,41,41,0,0,1,5.94,2.25,62.83,62.83,0,0,1,10.07,5.39,81.4,81.4,0,0,1,9.14,7.32c5.94,5.38,11.63,11.12,17.21,16.86A87.36,87.36,0,0,1,412.54,47a20.71,20.71,0,0,1,3.79,9.84,51.28,51.28,0,0,1-.5,12.74c-.57,4.23-1.25,8.45-1.9,12.67-1.36,8.8-3.15,17.59-4,26.47-.45,4.53-1,9.1-1.13,13.66a12.77,12.77,0,0,1-1.42,5.68,8.8,8.8,0,0,1-3.15,2.68c-6,3.7-12.94,5.74-19.7,7.4a229.94,229.94,0,0,1-25,4.49A229.93,229.93,0,0,1,333.07,145c-8.12.14-16.31-.58-23.69-4.22a34.15,34.15,0,0,1-9.16-6.55c-3-3.05-5.53-6.51-8.34-9.72-1.34-1.52-2.77-3-4-4.56a52.52,52.52,0,0,1-3.2-4.79c-2.17-3.55-4.31-7.1-6.69-10.52s-5-6.43-7.28-9.82c-2-3.06-3.44-6.44-5.17-9.67-1-1.89-2.09-3.75-3-5.68a60.07,60.07,0,0,1-2.32-5.78c-.71-2-1.39-4-2.18-5.92s-1.84-3.66-2.52-5.59a39.08,39.08,0,0,0-2-4.77,9.83,9.83,0,0,1-1.38-4.93l-2.86.67c.74,1,.9,2.34,1.84,3.25.6.58,2.2.25,2.72-.32a2.4,2.4,0,0,0,.64-1.61A7.7,7.7,0,0,1,255,52a12.65,12.65,0,0,1,1.9-3.71,2.38,2.38,0,0,1,2.25-.8l5.55.22a73.05,73.05,0,0,1,11,1.26,45.13,45.13,0,0,1,10.58,3,73.67,73.67,0,0,1,8.35,4.72,54.24,54.24,0,0,0,7.68,4.58A14.68,14.68,0,0,0,311,62.46c3.32-.63,6.16-2.47,9-4.16,6.19-3.66,13.73-6.88,21.06-6.4l-.74-.26c.92,1.62.24,3.81.12,5.54-.19,2.57-.38,5.14-.63,7.7q-.76,7.66-1.55,15.31c-.52,5.17-1.06,10.34-1.66,15.51-.3,2.63-.41,5.28-.75,7.91-.28,2.24-.71,5-2.29,6.71a3.34,3.34,0,0,1-1,.79.59.59,0,0,1-.28.08,3.77,3.77,0,0,1-.61,0,13,13,0,0,1-3.65-1.08,10,10,0,0,1-3.69-2.21c-1.12-1.19-.73-2.41.17-3.63,1.19-1.6,2.66-3,3.95-4.57,1.58-1.85,3.17-3.68,4.8-5.48a192.53,192.53,0,0,1,21.58-19.89c2-1.59,4-3.15,6-4.68,1.64-1.24,3.36-2.38,4.92-3.71A10.78,10.78,0,0,0,369,61.49a13.68,13.68,0,0,0,.48-5.4c-.41-8-1.93-16.63-7.26-22.89a16.84,16.84,0,0,0-9.8-5.61,40.7,40.7,0,0,0-11.92,0c-9.24,1-18.51,2.9-26.85,7.15a34.51,34.51,0,0,0-8.53,5.76,10.83,10.83,0,0,0-2.85,4A5,5,0,0,0,303,49.1c1.23,2,2.68,3.86,4,5.78,1.46,2.1,2.9,4.22,4.33,6.34q4.11,6.12,8,12.38c4.94,7.87,9.65,15.94,12.74,24.75,1.65,4.68,2.76,9.55,4.45,14.22.67,1.85,1.06,4,2.95,4.93a6.28,6.28,0,0,0,3.07.65,15.42,15.42,0,0,1,3.46-.08c2.11.42,3.92,1.67,5.93,2.35a15.1,15.1,0,0,0,6.37.62c2.36-.22,4.73-.65,7.07-1a28.7,28.7,0,0,0,6.39-1.57c6.27-2.56,9.76-9.06,11.95-15.1a88.78,88.78,0,0,0,4.81-24.08,126.68,126.68,0,0,0,.09-14.84,58.16,58.16,0,0,0-1.93-13.25,51.42,51.42,0,0,0-5.34-11.89c-2.23-3.78-4.64-7.69-8.25-10.31a59.52,59.52,0,0,0-5.59-3.36c-2-1.12-3.89-2.28-5.9-3.32-4.37-2.25-9-4-13.36-6.28s-8.42-4.73-12.8-6.79a90.89,90.89,0,0,0-13.55-5C317.72,3.05,313.68,1,309.23,1c-3.68,0-7.86,1-10.45,3.82a28.47,28.47,0,0,0-3.66,5.65c-1.22,2.19-2.48,4.36-3.65,6.57-2.31,4.34-4.48,8.75-6.58,13.19-4.11,8.7-7.82,17.69-9.79,27.15-.79,3.78-1.85,8.13-.68,11.93a15.58,15.58,0,0,0,5.38,7.28c2.5,2,5.29,3.7,8,5.5,4,2.69,7.74,5.69,11.59,8.55,8.12,6,16.42,11.92,24.09,18.53,3.75,3.24,7.37,6.63,10.92,10.07l2.41,2.35a15.33,15.33,0,0,0,2.16,2c1.77,1.18,4.1.69,5.95,0,2.11-.83,4.18-1.68,6.37-2.3a10.26,10.26,0,0,1,2.93-.6,23.67,23.67,0,0,1,3.55.58c1.6.29,3.32.53,4.56,1.69,1.71,1.61,1.08,4,1.13,6.1.05,2.31,1,4.45,1.14,6.73a4.19,4.19,0,0,1-.7,2.86,4.42,4.42,0,0,1-2.46,1.35,50.55,50.55,0,0,0-11.27,4.69,89.16,89.16,0,0,1-10.83,5.66,37.68,37.68,0,0,1-6.44,1.69c-2.48.5-5,1-7.47,1.34a44.35,44.35,0,0,1-14.63,0c-4.92-.93-9.56-3-14.28-4.65-4.44-1.51-8.88-2.76-12.79-5.45s-8-5.44-11.78-8.44-7.39-6.22-11-9.43a104.63,104.63,0,0,1-9.6-10.26,140.37,140.37,0,0,0-10.41-10.29c-3.62-3.42-7.16-6.93-10.71-10.42a37.66,37.66,0,0,1-4.12-4.26,5.25,5.25,0,0,1-.82-4.59c.76-3.55,2.55-6.84,3.71-10.27a110.81,110.81,0,0,1,4.57-12.52,22.37,22.37,0,0,1,8.31-9.55,9.34,9.34,0,0,1,6.06-1.71,15.92,15.92,0,0,1,6.49,2.73,21.3,21.3,0,0,1,5.24,4.5,55.87,55.87,0,0,1,3.59,5.42c1.18,1.88,2.52,3.65,3.52,5.64a62.82,62.82,0,0,1,2.8,6.86c1.5,4.08,2.51,8.4,5.28,11.85,2.6,3.24,6.14,5.69,9.51,8,3.82,2.66,7.78,5.11,11.8,7.44,8.15,4.73,16.52,9.13,24.82,13.6a53.44,53.44,0,0,0,12.48,4.71c2.13.53,4.28,1,6.45,1.29a27.5,27.5,0,0,1,3.15.48,27.39,27.39,0,0,0,3.06,1.14,2.88,2.88,0,0,0,2.07-.36c.43-.31.48-.79-.15-.89Z"/><path class="cls-1" d="M345,151.1c-.22,2.09,1.26,3.37,2.41,4.9a16.85,16.85,0,0,1,2.8,6.69c1.19,5.45.63,10.71-.65,16.09s-2.78,10.76-3.63,16.3a137.63,137.63,0,0,1-3.31,16.62c-.77,2.74-1.57,5.43-2.12,8.22s-.94,5.31-1.54,7.94c-1.27,5.62-3.65,11-5.7,16.38-4.08,10.71-8.39,21.26-13.4,31.58-4.89,10.09-10.09,20-14.72,30.24a72.05,72.05,0,0,0-4.87,15.58c-1.12,5.53-2.38,11-3.65,16.49-1.3,5.69-2,11.47-2.92,17.23s-1.81,11.55-2.72,17.32c-1.79,11.44-3.55,22.85-4.08,34.43a164.75,164.75,0,0,1-1.4,17.33,121.52,121.52,0,0,0-1.31,16.39c-.1,5.73-1,11.36-1.47,17.05s.14,11.26.38,16.92a50.19,50.19,0,0,1-.3,8.58c-.12.89,2.45-.2,2.58-1,.37-2.4.75-4.81,1.12-7.21.21-1.31-2.41-.1-2.55.8-.37,2.41-.75,4.81-1.12,7.22l2.58-1c.76-5.73.06-11.45-.21-17.18s.46-11.2,1.06-16.82.47-11.3.92-16.95,1.55-11.3,1.92-17,.47-11.38,1-17.05c.54-6,1.38-11.89,2.29-17.8,1.77-11.56,3.62-23.11,5.37-34.67.86-5.67,2.43-11.19,3.66-16.79,1.19-5.42,2-10.94,3.72-16.24s4.42-10.45,6.87-15.5,5-10.16,7.55-15.24c4.95-10,9.55-20.09,13.59-30.49q3.17-8.14,6.21-16.34c2-5.37,2.82-10.88,4-16.45s2.95-10.69,3.95-16.18,1.65-11.12,3-16.59c1.33-5.21,3-10.45,3.18-15.86.2-4.54-.55-9.88-3-13.77-1.1-1.71-3.1-3.12-2.87-5.35.1-.9-2.51.26-2.61,1.25Z"/><path class="cls-1" d="M295.08,343.71c-.69-.31-1-1.36-1.22-2a24.49,24.49,0,0,1-.78-3.39c-.48-2.63-1.14-5.21-1.53-7.85-.48-3.25-.95-6.53-1.23-9.8-.24-2.84-.35-5.69-.71-8.51a25.58,25.58,0,0,0-2.1-7.92c-1.36-2.83-3.55-4.8-5.95-6.75-5.57-4.55-11.67-8.45-17.07-13.22-10.33-9.14-18.82-21.44-22.3-34.88a72.52,72.52,0,0,1-2-21.07,81.68,81.68,0,0,0,.14-10.61,21.1,21.1,0,0,0-3.12-9.43c-1.74-2.83-4-5.47-4.55-8.84-.53-3.21.2-6.48,1.11-9.55s2.12-6.32,2.76-9.59a45.35,45.35,0,0,0,1.13-11.19,24.38,24.38,0,0,0-.94-5.36l-2.47,1.66c4.16,4.48,8.29,9,13.23,12.6,2.37,1.75,4.82,3.38,7.06,5.3s4.42,4,6.73,5.93a51.47,51.47,0,0,0,6.84,4.88c2.47,1.43,5.17,1.83,8,2.2a23.8,23.8,0,0,1,7.88,2.23,15.2,15.2,0,0,1,6.23,5.3c1.32,2.28,1.29,5.13,1.41,7.68.14,3.13.18,6.27.44,9.39.52,6.2,2.75,12,3.6,18.19a46.08,46.08,0,0,1-.92,17.7,47.56,47.56,0,0,1-2.41,7.77,9.52,9.52,0,0,1-2.05,3.21,24.35,24.35,0,0,1-3,2.18,9.59,9.59,0,0,0-4.41,6c-.54,2.57-.21,5.28-1,7.81a4,4,0,0,1-2.07,2.44,12.41,12.41,0,0,0-3.05,2.44c-1.91,2.26-2,5.26-2.24,8.07l2.51-1.52c-5-18.37-7.47-37.29-11.31-55.92a224.64,224.64,0,0,0-7.11-27,137.65,137.65,0,0,0-5.23-13.14c-1.89-4.09-3.59-8.61-6.56-12.06-1.82-2.12-3.8-4.09-5.65-6.18a41.46,41.46,0,0,0-4.89-5.28,26,26,0,0,0-12.64-5.16,2.5,2.5,0,0,0-1.73.72c-.11.09-1,1-.51,1.11a26.51,26.51,0,0,1,11.49,4.3,23.65,23.65,0,0,1,4.49,4.45c1.59,1.91,3.32,3.71,5,5.53a31.08,31.08,0,0,1,4.3,5.53c1.13,2,2,4.11,3,6.17,2,4.21,3.85,8.49,5.44,12.88,6.45,17.74,9.42,36.46,12.78,55,1.87,10.32,3.87,20.64,6.63,30.77.17.63,2.46-.94,2.51-1.52.18-2.35.09-5.61,2-7.36a21.89,21.89,0,0,1,2.41-1.6,7.75,7.75,0,0,0,2.44-2.56c2.1-3.91-.2-10,3.77-12.86,2.12-1.53,4.4-2.78,5.9-5a24.89,24.89,0,0,0,2.94-7.22,50.83,50.83,0,0,0,2.19-17.15,57.7,57.7,0,0,0-1.29-8.86c-.67-3.05-1.68-6-2.2-9.12a73.09,73.09,0,0,1-.79-9.34,65.85,65.85,0,0,0-.54-8.88,10.12,10.12,0,0,0-3.9-6.3,20.23,20.23,0,0,0-6.66-3.64c-2.65-.86-5.42-1-8.14-1.48a20,20,0,0,1-7.86-3.77,89,89,0,0,1-7.8-6.45,86.65,86.65,0,0,0-7.71-6.19,68.4,68.4,0,0,1-7.8-6.4c-2.48-2.38-4.8-4.92-7.15-7.44-.55-.58-2.69.94-2.47,1.66a27.61,27.61,0,0,1,.56,11.41,59.55,59.55,0,0,1-2.31,10.41,47.39,47.39,0,0,0-2.47,9.64,14.09,14.09,0,0,0,2.13,9.08c1.73,2.81,3.79,5.44,4.79,8.64a31.94,31.94,0,0,1,.91,10.72c-.29,7.12-.45,14.15.83,21.21,2.51,13.78,10,26.21,19.81,36.1,5.07,5.12,11,9.19,16.72,13.52,2.67,2,5.65,4.05,7.8,6.63a17.67,17.67,0,0,1,3.47,7.5,56.06,56.06,0,0,1,1,8.68c.21,3,.56,5.94.93,8.91.42,3.3,1,6.52,1.68,9.77a44.12,44.12,0,0,0,1.36,6.13,2.88,2.88,0,0,0,1.33,1.8c.73.33,2.87-1.55,2.23-1.83Z"/><path class="cls-1" d="M286.22,426.87c1.07-4.36,2.12-8.8,4.34-12.75,2.33-4.13,5.92-7.54,9.5-10.59a59.27,59.27,0,0,1,10.54-7.39c3.7-2,7.51-3.71,11.07-5.94a38.73,38.73,0,0,0,4.88-3.55,14.57,14.57,0,0,0,3.9-4.66c1.56-3.45-.58-6.91-1.54-10.2a79.05,79.05,0,0,1-2.86-14.28A35.31,35.31,0,0,1,327.47,343a19.7,19.7,0,0,1,5.74-8.89,30.45,30.45,0,0,1,8.7-4.76,76.86,76.86,0,0,1,13.37-4.12,93.2,93.2,0,0,1,14.9-1.74c10-.44,20,.37,30,.51,5.28.07,10.57.06,15.84.55,2.16.2,4.46.81,6.63.52a13.69,13.69,0,0,0,5.73-2.39c.41-.28.81-.57,1.22-.87s.78-.73,1.16-.81c.53-.13.37.51.23,1a11.24,11.24,0,0,1-.68,1.65,16.61,16.61,0,0,0-1.15,2.59,18.53,18.53,0,0,0-.58,3.38c-.56,5.25-1.58,10.46-2.34,15.69a60.79,60.79,0,0,1-2.63,12.22,31.5,31.5,0,0,1-5.71,10,22.79,22.79,0,0,1-9.5,6.84c-4,1.43-8.23,2.19-12.31,3.45a43.18,43.18,0,0,0-10.91,4.85,26.14,26.14,0,0,0-4.26,3.45,61.24,61.24,0,0,0-4,4.79,38.38,38.38,0,0,1-8.58,8.25c-1.69,1.1-3.54,1.92-5.29,2.9a62,62,0,0,1-6,3.22,11.56,11.56,0,0,1-6.18,1A10.68,10.68,0,0,1,346,404c-3.05-2.39-5.25-5.66-7.75-8.57-3.26-3.81-6.89-7.27-10.25-11-2.41-2.65-5.37-6.49-2.85-10,1.36-1.91,3.65-2.95,5.7-3.94a61.09,61.09,0,0,0,6.21-3.25,100.1,100.1,0,0,0,11.56-9.2c6.94-6,13.94-12.15,22-16.54a43.85,43.85,0,0,1,12-4.48,55.44,55.44,0,0,1,7.27-.85c2.53-.19,5.05-.5,7.56-.83,5.11-.69,10.2-1.45,15.36-1.74a35.68,35.68,0,0,0,11.86-2.46,38.45,38.45,0,0,0,10.73-7.42,20.59,20.59,0,0,0,4-4.86c1-1.75,2.13-3.69,1.93-5.8-.11-1.08-.51-2.72-1.61-3.22-1.35-.61-3.36,1-4.27,1.82-.46.42.54.08.63,0a6.28,6.28,0,0,0,1.75-1.07l-1.11.59a1.19,1.19,0,0,1,.32.05c.15.11.33.16.48.29a2.82,2.82,0,0,1,.64.92,6,6,0,0,1,.58,2.45,8.33,8.33,0,0,1-1.25,4,20.59,20.59,0,0,1-2.42,3.69,40.13,40.13,0,0,1-5.93,5.27,16.74,16.74,0,0,1-6.72,3.17,44.08,44.08,0,0,1-7.84,1c-3,.17-6.06.52-9.07.92s-6.25.89-9.38,1.25c-2.93.33-5.89.39-8.81.8-10.58,1.5-20.09,7.17-28.48,13.52-4.59,3.47-8.92,7.24-13.28,11-2.34,2-4.7,4-7.15,5.89a40.52,40.52,0,0,1-7.32,4.26,31.74,31.74,0,0,0-7,4.24c-1.68,1.44-2.94,3.37-2.55,5.67s2.1,4.38,3.66,6.1c2,2.19,4.06,4.27,6.09,6.41s4,4.28,5.83,6.55a59.55,59.55,0,0,0,4.34,5.05,14.49,14.49,0,0,0,5.39,3.65,10.93,10.93,0,0,0,6.94-.25,40.22,40.22,0,0,0,7.21-3.4c2.31-1.31,4.71-2.49,7-3.83a40.89,40.89,0,0,0,10.69-9.36,70.49,70.49,0,0,1,5-5.9A18.39,18.39,0,0,1,389,381.1c4.58-2.06,9.54-3,14.35-4.35a35.26,35.26,0,0,0,13.5-6.88A31.49,31.49,0,0,0,425,359.1,49.5,49.5,0,0,0,428.69,345c.44-3.12.93-6.22,1.43-9.33.24-1.55.49-3.1.73-4.66s.32-3.11.58-4.65c.41-2.47,2.12-4.47,2.39-7l-.07,0a10.58,10.58,0,0,0-4.44,1.93c-.67.44-1.31.93-2,1.39a4.33,4.33,0,0,1-2.13.83c-1.84.33-3.77-.18-5.59-.38-2.18-.23-4.36-.37-6.54-.46-4.26-.17-8.52-.15-12.77-.24s-8.37-.32-12.55-.45a150.89,150.89,0,0,0-24.14.73,84.14,84.14,0,0,0-21.89,6c-5.18,2.18-10.5,5-13.89,9.64-4.2,5.75-5.09,13.61-4.41,20.51a85.91,85.91,0,0,0,2.18,11.58,47.75,47.75,0,0,0,1.53,5.21,19.27,19.27,0,0,1,1.21,4.14c.44,3.53-2.2,6.2-4.74,8.25a46.79,46.79,0,0,1-8.31,5c-3.05,1.56-6.14,3.08-9.05,4.91a72,72,0,0,0-8.89,6.76,52.16,52.16,0,0,0-7.75,8,31,31,0,0,0-4.6,10c-.51,1.76-.94,3.54-1.38,5.32-.08.33,1-.19,1.06-.24.34-.16,1.41-.6,1.52-1Z"/></g></g></svg>